<?xml version="1.0" standalone="no"?><svg xmlns="http://www.w3.org/2000/svg" viewBox="0 0 1440 320"><path fill="#cccc" fill-opacity="1" d="M0,128L34.3,117.3C68.6,107,137,85,206,80C274.3,75,343,85,411,90.7C480,96,549,96,617,80C685.7,64,754,32,823,42.7C891.4,53,960,107,1029,106.7C1097.1,107,1166,53,1234,48C1302.9,43,1371,85,1406,106.7L1440,128L1440,320L1405.7,320C1371.4,320,1303,320,1234,320C1165.7,320,1097,320,1029,320C960,320,891,320,823,320C754.3,320,686,320,617,320C548.6,320,480,320,411,320C342.9,320,274,320,206,320C137.1,320,69,320,34,320L0,320Z"></path></svg>